<?xml version="1.0" encoding="UTF-8" ?>
<!DOCTYPE svg PUBLIC "-//W3C//DTD SVG 1.1//EN" "http://www.w3.org/Graphics/SVG/1.1/DTD/svg11.dtd">
<svg width="420pt" height="420pt" viewBox="0 0 420 420" version="1.1" xmlns="http://www.w3.org/2000/svg">
<g id="#000000ff">
<path fill="#000000" opacity="1.00" d=" M 186.49 8.73 C 214.08 5.59 242.32 8.00 268.92 16.08 C 318.82 30.97 362.17 66.14 387.26 111.74 C 404.58 142.77 413.37 178.52 412.51 214.04 C 411.89 261.76 393.41 308.98 361.56 344.51 C 336.39 372.99 303.00 394.20 266.43 404.65 C 235.36 413.64 202.13 415.04 170.41 408.72 C 124.80 399.93 82.73 374.52 53.36 338.60 C 31.07 311.58 16.03 278.66 10.26 244.10 C 1.18 191.71 13.67 135.91 44.73 92.69 C 73.60 51.81 118.10 22.24 167.13 11.95 C 173.53 10.60 179.98 9.47 186.49 8.73 M 185.48 13.85 C 131.99 20.13 81.88 49.84 50.34 93.42 C 25.55 127.19 11.78 169.06 12.50 211.00 C 11.97 269.21 39.79 326.58 84.93 363.09 C 106.50 380.79 131.89 393.80 158.83 401.02 C 181.49 407.11 205.23 408.78 228.58 406.78 C 271.87 402.97 313.63 384.05 345.18 354.18 C 350.42 350.12 354.36 344.75 358.93 340.01 C 383.70 311.71 400.24 276.21 405.56 238.95 C 408.97 214.58 408.14 189.56 402.69 165.53 C 395.44 133.98 380.23 104.31 358.91 79.96 C 335.75 53.31 305.22 33.14 271.69 22.11 C 244.04 12.95 214.36 10.47 185.48 13.85 Z" />
<path fill="#000000" opacity="1.00" d=" M 286.81 87.92 C 294.86 85.26 304.25 87.82 310.07 93.92 C 315.59 99.51 317.87 108.07 315.87 115.66 C 313.94 123.46 307.68 130.02 299.91 132.12 C 292.82 134.27 284.77 132.61 279.04 127.95 C 274.28 124.31 271.46 118.62 270.51 112.78 C 257.36 110.07 244.25 107.18 231.12 104.39 C 226.96 123.56 222.95 142.75 218.79 161.92 C 245.20 163.58 271.77 170.91 293.74 186.02 C 302.18 178.99 314.30 176.45 324.69 180.33 C 336.36 184.17 344.88 195.45 345.70 207.66 C 346.66 219.97 339.82 232.43 328.83 238.10 C 330.98 254.32 325.81 270.98 316.09 283.98 C 303.39 300.99 284.80 312.77 265.03 319.93 C 237.21 329.90 206.64 331.91 177.70 326.08 C 152.52 321.07 127.83 309.86 110.10 290.91 C 97.03 276.86 89.05 257.42 91.62 238.09 C 83.90 233.74 77.61 226.40 75.68 217.63 C 71.96 203.90 79.27 188.21 92.11 182.15 C 103.05 176.45 117.37 178.09 126.57 186.35 C 149.14 170.75 176.64 163.35 203.84 162.17 C 208.60 139.52 213.47 116.89 218.23 94.24 C 218.82 90.39 223.03 87.51 226.85 88.40 C 242.44 91.70 258.04 94.97 273.62 98.32 C 276.59 93.41 281.28 89.56 286.81 87.92 M 282.07 95.99 C 279.36 98.20 277.95 101.59 275.16 103.73 C 260.08 100.30 244.89 97.33 229.78 94.00 C 228.00 93.63 226.20 93.18 224.37 93.31 C 223.30 94.09 223.03 95.41 222.74 96.61 C 218.07 118.76 213.34 140.89 208.66 163.04 C 208.40 165.43 206.63 167.44 204.07 167.08 C 177.77 168.24 151.26 175.35 129.41 190.38 C 127.94 191.56 125.89 192.40 124.36 190.78 C 119.20 186.50 112.80 183.47 105.96 183.73 C 93.08 183.58 81.22 194.19 79.90 206.99 C 78.45 217.27 83.95 227.88 92.90 232.99 C 94.39 234.08 97.07 234.76 96.63 237.13 C 96.30 242.72 95.84 248.38 96.79 253.95 C 99.09 269.15 107.98 282.67 119.16 292.92 C 142.53 313.72 174.13 323.28 204.99 324.23 C 235.06 325.15 266.07 318.27 291.10 301.09 C 307.00 289.98 320.69 273.73 323.70 254.04 C 324.98 247.67 323.59 241.20 324.14 234.80 C 326.88 233.44 329.59 231.97 331.90 229.94 C 341.48 221.58 343.78 206.10 336.50 195.54 C 329.26 183.69 312.04 179.80 300.42 187.43 C 297.97 188.61 296.15 191.85 293.14 191.25 C 290.14 189.92 287.64 187.74 284.80 186.14 C 266.11 175.09 244.72 168.98 223.13 167.26 C 219.99 166.95 216.71 167.16 213.71 166.00 C 213.26 164.33 213.65 162.62 213.97 160.97 C 218.21 141.50 222.28 121.99 226.49 102.52 C 226.80 100.57 228.45 98.42 230.64 99.31 C 244.74 102.28 258.85 105.27 272.92 108.37 C 275.83 109.03 275.31 112.63 276.11 114.83 C 278.05 122.65 285.96 128.53 294.02 128.04 C 303.46 128.12 311.87 119.46 311.59 110.04 C 311.91 101.22 304.65 93.17 296.01 92.01 C 291.06 91.25 285.93 92.85 282.07 95.99 Z" />
<path fill="#000000" opacity="1.00" d=" M 158.24 208.15 C 165.21 206.25 172.86 208.18 178.44 212.67 C 188.30 220.51 189.71 236.72 181.15 246.04 C 176.74 251.40 169.77 254.30 162.88 254.17 C 155.56 253.78 148.29 249.85 144.50 243.49 C 140.51 237.24 139.65 229.13 142.38 222.22 C 144.95 215.31 151.12 209.96 158.24 208.15 M 157.48 213.58 C 149.13 216.71 143.94 226.36 146.24 235.05 C 148.03 243.80 157.00 250.39 165.91 249.03 C 175.46 248.03 183.06 238.49 181.75 228.93 C 181.27 217.46 168.08 209.04 157.48 213.58 Z" />
<path fill="#000000" opacity="1.00" d=" M 249.34 209.55 C 256.05 207.58 263.59 208.84 269.30 212.86 C 275.31 216.81 278.84 223.88 279.22 230.97 C 279.19 237.73 276.09 244.48 270.94 248.87 C 264.75 254.18 255.78 255.68 248.10 253.07 C 238.01 249.77 230.94 238.74 232.75 228.17 C 234.06 219.46 240.80 211.81 249.34 209.55 M 249.50 214.64 C 242.85 217.12 237.65 223.64 237.48 230.84 C 237.00 239.37 243.75 247.45 252.04 249.03 C 256.11 249.57 260.51 249.50 264.16 247.39 C 270.31 244.43 274.31 237.70 274.24 230.92 C 273.93 224.77 270.31 218.80 264.81 215.95 C 260.24 213.24 254.48 212.99 249.50 214.64 Z" />
<path fill="#000000" opacity="1.00" d=" M 161.45 274.65 C 164.53 273.26 168.16 274.16 170.50 276.50 C 176.76 282.29 185.23 284.76 193.41 286.31 C 208.26 288.82 223.87 288.31 238.18 283.42 C 242.95 281.87 247.16 279.11 250.91 275.82 C 255.01 271.95 262.62 274.63 263.48 280.18 C 265.02 285.85 259.71 289.86 255.60 292.61 C 240.98 301.91 222.99 304.10 205.99 303.70 C 190.31 302.78 173.66 299.93 161.09 289.81 C 158.58 288.04 156.66 285.28 156.49 282.13 C 156.68 279.02 158.42 275.80 161.45 274.65 M 163.27 279.19 C 160.96 280.27 161.01 283.57 163.07 284.96 C 172.70 293.38 185.63 296.71 198.08 298.08 C 210.15 299.43 222.46 298.86 234.31 296.16 C 242.09 294.21 249.88 291.30 256.05 286.03 C 257.16 284.88 258.95 283.86 258.79 282.02 C 258.93 279.52 255.69 277.83 253.90 279.77 C 249.47 283.82 244.17 286.78 238.44 288.56 C 221.85 293.73 203.84 294.13 186.98 289.95 C 179.96 288.16 172.94 285.48 167.50 280.54 C 166.41 279.41 164.88 278.46 163.27 279.19 Z" />
</g>
<g id="#ffffffff">
<path fill="#ffffff" opacity="1.00" d=" M 185.48 13.85 C 214.36 10.47 244.04 12.95 271.69 22.11 C 305.22 33.14 335.75 53.31 358.91 79.96 C 380.23 104.31 395.44 133.98 402.69 165.53 C 408.14 189.56 408.97 214.58 405.56 238.95 C 400.24 276.21 383.70 311.71 358.93 340.01 C 354.36 344.75 350.42 350.12 345.18 354.18 C 313.63 384.05 271.87 402.97 228.58 406.78 C 205.23 408.78 181.49 407.11 158.83 401.02 C 131.89 393.80 106.50 380.79 84.93 363.09 C 39.79 326.58 11.97 269.21 12.50 211.00 C 11.78 169.06 25.55 127.19 50.34 93.42 C 81.88 49.84 131.99 20.13 185.48 13.85 M 286.81 87.92 C 281.28 89.56 276.59 93.41 273.62 98.32 C 258.04 94.97 242.44 91.70 226.85 88.40 C 223.03 87.51 218.82 90.39 218.23 94.24 C 213.47 116.89 208.60 139.52 203.84 162.17 C 176.64 163.35 149.14 170.75 126.57 186.35 C 117.37 178.09 103.05 176.45 92.11 182.15 C 79.27 188.21 71.96 203.90 75.68 217.63 C 77.61 226.40 83.90 233.74 91.62 238.09 C 89.05 257.42 97.03 276.86 110.10 290.91 C 127.83 309.86 152.52 321.07 177.70 326.08 C 206.64 331.91 237.21 329.90 265.03 319.93 C 284.80 312.77 303.39 300.99 316.09 283.98 C 325.81 270.98 330.98 254.32 328.83 238.10 C 339.82 232.43 346.66 219.97 345.70 207.66 C 344.88 195.45 336.36 184.17 324.69 180.33 C 314.30 176.45 302.18 178.99 293.74 186.02 C 271.77 170.91 245.20 163.58 218.79 161.92 C 222.95 142.75 226.96 123.56 231.12 104.39 C 244.25 107.18 257.36 110.07 270.51 112.78 C 271.46 118.62 274.28 124.31 279.04 127.95 C 284.77 132.61 292.82 134.27 299.91 132.12 C 307.68 130.02 313.94 123.46 315.87 115.66 C 317.87 108.07 315.59 99.51 310.07 93.92 C 304.25 87.82 294.86 85.26 286.81 87.92 Z" />
<path fill="#ffffff" opacity="1.00" d=" M 157.48 213.58 C 168.08 209.04 181.27 217.46 181.75 228.93 C 183.06 238.49 175.46 248.03 165.91 249.03 C 157.00 250.39 148.03 243.80 146.24 235.05 C 143.94 226.36 149.13 216.71 157.48 213.58 Z" />
<path fill="#ffffff" opacity="1.00" d=" M 249.50 214.64 C 254.48 212.99 260.24 213.24 264.81 215.95 C 270.31 218.80 273.93 224.77 274.24 230.92 C 274.31 237.70 270.31 244.43 264.16 247.39 C 260.51 249.50 256.11 249.57 252.04 249.03 C 243.75 247.45 237.00 239.37 237.48 230.84 C 237.65 223.64 242.85 217.12 249.50 214.64 Z" />
<path fill="#ffffff" opacity="1.00" d=" M 163.27 279.19 C 164.88 278.46 166.41 279.41 167.50 280.54 C 172.94 285.48 179.96 288.16 186.98 289.95 C 203.84 294.13 221.85 293.73 238.44 288.56 C 244.17 286.78 249.47 283.82 253.90 279.77 C 255.69 277.83 258.93 279.52 258.79 282.02 C 258.95 283.86 257.16 284.88 256.05 286.03 C 249.88 291.30 242.09 294.21 234.31 296.16 C 222.46 298.86 210.15 299.43 198.08 298.08 C 185.63 296.71 172.70 293.38 163.07 284.96 C 161.01 283.57 160.96 280.27 163.27 279.19 Z" />
</g>
</svg>
